<svg width="33" height="33" viewBox="0 0 33 33" fill="none" xmlns="http://www.w3.org/2000/svg">
<path d="M11.1375 16.5C12.5597 16.5 13.9237 15.935 14.9294 14.9294C15.935 13.9237 16.5 12.5597 16.5 11.1375C16.5 9.71528 15.935 8.35131 14.9294 7.34564C13.9237 6.33998 12.5597 5.775 11.1375 5.775C9.71528 5.775 8.35131 6.33998 7.34565 7.34564C6.33998 8.35131 5.77501 9.71528 5.77501 11.1375C5.77501 12.5597 6.33998 13.9237 7.34565 14.9294C8.35131 15.935 9.71528 16.5 11.1375 16.5ZM17.325 20.625C17.325 19.8314 17.6996 19.1235 18.282 18.6714C17.7505 18.3298 17.1318 18.1487 16.5 18.15H5.77501C4.89979 18.15 4.06042 18.4977 3.44155 19.1165C2.82268 19.7354 2.47501 20.5748 2.47501 21.45C2.47501 21.45 2.47501 28.05 11.1375 28.05C14.36 28.05 16.3845 27.1359 17.655 25.9875C17.7408 25.839 17.8415 25.7021 17.9553 25.575C17.5486 25.1217 17.3241 24.534 17.325 23.925C17.325 23.2914 17.5626 22.7123 17.9553 22.275C17.5486 21.8217 17.3241 21.234 17.325 20.625ZM28.05 12.375C28.05 13.469 27.6154 14.5182 26.8418 15.2918C26.0682 16.0654 25.019 16.5 23.925 16.5C22.831 16.5 21.7818 16.0654 21.0082 15.2918C20.2346 14.5182 19.8 13.469 19.8 12.375C19.8 11.281 20.2346 10.2318 21.0082 9.45819C21.7818 8.6846 22.831 8.25 23.925 8.25C25.019 8.25 26.0682 8.6846 26.8418 9.45819C27.6154 10.2318 28.05 11.281 28.05 12.375ZM19.8 19.8C19.5812 19.8 19.3714 19.8869 19.2166 20.0416C19.0619 20.1964 18.975 20.4062 18.975 20.625C18.975 20.8438 19.0619 21.0536 19.2166 21.2084C19.3714 21.3631 19.5812 21.45 19.8 21.45H29.7C29.9188 21.45 30.1287 21.3631 30.2834 21.2084C30.4381 21.0536 30.525 20.8438 30.525 20.625C30.525 20.4062 30.4381 20.1964 30.2834 20.0416C30.1287 19.8869 29.9188 19.8 29.7 19.8H19.8ZM19.8 23.1C19.5812 23.1 19.3714 23.1869 19.2166 23.3416C19.0619 23.4964 18.975 23.7062 18.975 23.925C18.975 24.1438 19.0619 24.3536 19.2166 24.5084C19.3714 24.6631 19.5812 24.75 19.8 24.75H29.7C29.9188 24.75 30.1287 24.6631 30.2834 24.5084C30.4381 24.3536 30.525 24.1438 30.525 23.925C30.525 23.7062 30.4381 23.4964 30.2834 23.3416C30.1287 23.1869 29.9188 23.1 29.7 23.1H19.8ZM19.8 26.4C19.5812 26.4 19.3714 26.4869 19.2166 26.6416C19.0619 26.7964 18.975 27.0062 18.975 27.225C18.975 27.4438 19.0619 27.6536 19.2166 27.8084C19.3714 27.9631 19.5812 28.05 19.8 28.05H29.7C29.9188 28.05 30.1287 27.9631 30.2834 27.8084C30.4381 27.6536 30.525 27.4438 30.525 27.225C30.525 27.0062 30.4381 26.7964 30.2834 26.6416C30.1287 26.4869 29.9188 26.4 29.7 26.4H19.8Z" fill="#A4A4A4"/>
</svg>
