<svg width="33" height="33" viewBox="0 0 33 33" fill="none" xmlns="http://www.w3.org/2000/svg">
<g clip-path="url(#clip0_7_174)">
<path fill-rule="evenodd" clip-rule="evenodd" d="M8.25 9.42857C9.50031 9.42857 10.6994 8.93189 11.5835 8.04779C12.4676 7.16369 12.9643 5.96459 12.9643 4.71429C12.9643 3.46398 12.4676 2.26488 11.5835 1.38078C10.6994 0.496682 9.50031 0 8.25 0C6.99969 0 5.8006 0.496682 4.9165 1.38078C4.0324 2.26488 3.53571 3.46398 3.53571 4.71429C3.53571 5.96459 4.0324 7.16369 4.9165 8.04779C5.8006 8.93189 6.99969 9.42857 8.25 9.42857ZM13.0704 23.5714V23.5007C13.0704 21.1671 14.3597 19.1353 16.2643 18.0746C15.7855 16.1147 14.605 14.3982 12.9463 13.2497C11.2875 12.1012 9.26541 11.6004 7.26237 11.8419C5.25933 12.0834 3.41423 13.0506 2.07601 14.5604C0.737791 16.0703 -0.000771057 18.0182 6.04071e-07 20.0357V22.3929C6.04071e-07 22.7054 0.124171 23.0052 0.345196 23.2262C0.566221 23.4473 0.865995 23.5714 1.17857 23.5714H3.53571L4.58464 31.9676C4.62026 32.2526 4.75871 32.5147 4.974 32.7049C5.18928 32.895 5.46658 32.9999 5.75379 33H10.7486C11.0358 32.9999 11.3131 32.895 11.5284 32.7049C11.7436 32.5147 11.8821 32.2526 11.9177 31.9676L12.9643 23.5714H13.0704ZM23.3994 18.1194C23.2431 18.1194 23.0932 18.1814 22.9827 18.292C22.8722 18.4025 22.8101 18.5524 22.8101 18.7086V20.2431H26.1407V18.711C26.1407 18.5547 26.0786 18.4048 25.9681 18.2943C25.8576 18.1838 25.7077 18.1217 25.5514 18.1217L23.3994 18.1194ZM19.2744 18.7086V20.2431C17.4759 20.2431 16.0168 21.7046 16.0168 23.5031V29.7424C16.0168 31.5409 17.4759 33 19.2744 33H29.6741C31.4726 33 32.9316 31.5409 32.9316 29.7424V23.5007C32.9316 21.7022 31.4749 20.2431 29.6764 20.2431V18.711C29.6764 17.617 29.2418 16.5678 28.4682 15.7942C27.6947 15.0206 26.6454 14.586 25.5514 14.586H23.3994C22.3053 14.586 21.2561 15.0206 20.4825 15.7942C19.709 16.5678 19.2744 17.617 19.2744 18.711V18.7086Z" fill="#65B77C"/>
</g>
<defs>
<clipPath id="clip0_7_174">
<rect width="33" height="33" fill="white"/>
</clipPath>
</defs>
</svg>
