<svg width="20" height="21" viewBox="0 0 20 21" fill="none" xmlns="http://www.w3.org/2000/svg">
<path d="M11.875 8V6.75H11.25C10.9185 6.75 10.6005 6.8817 10.3661 7.11612C10.1317 7.35054 10 7.66848 10 8V13C10 13.3315 10.1317 13.6495 10.3661 13.8839C10.6005 14.1183 10.9185 14.25 11.25 14.25H11.875V13C11.875 12.6685 12.0067 12.3505 12.2411 12.1161C12.4755 11.8817 12.7935 11.75 13.125 11.75H16.875C17.2065 11.75 17.5245 11.8817 17.7589 12.1161C17.9933 12.3505 18.125 12.6685 18.125 13V16.75C18.125 17.0815 17.9933 17.3995 17.7589 17.6339C17.5245 17.8683 17.2065 18 16.875 18H13.125C12.7935 18 12.4755 17.8683 12.2411 17.6339C12.0067 17.3995 11.875 17.0815 11.875 16.75V15.5H11.25C10.587 15.5 9.95107 15.2366 9.48223 14.7678C9.01339 14.2989 8.75 13.663 8.75 13V11.125H6.25V11.75C6.25 12.0815 6.1183 12.3995 5.88388 12.6339C5.64946 12.8683 5.33152 13 5 13H2.5C2.16848 13 1.85054 12.8683 1.61612 12.6339C1.3817 12.3995 1.25 12.0815 1.25 11.75V9.25C1.25 8.91848 1.3817 8.60054 1.61612 8.36612C1.85054 8.1317 2.16848 8 2.5 8H5C5.33152 8 5.64946 8.1317 5.88388 8.36612C6.1183 8.60054 6.25 8.91848 6.25 9.25V9.875H8.75V8C8.75 7.33696 9.01339 6.70107 9.48223 6.23223C9.95107 5.76339 10.587 5.5 11.25 5.5H11.875V4.25C11.875 3.91848 12.0067 3.60054 12.2411 3.36612C12.4755 3.1317 12.7935 3 13.125 3H16.875C17.2065 3 17.5245 3.1317 17.7589 3.36612C17.9933 3.60054 18.125 3.91848 18.125 4.25V8C18.125 8.33152 17.9933 8.64946 17.7589 8.88388C17.5245 9.1183 17.2065 9.25 16.875 9.25H13.125C12.7935 9.25 12.4755 9.1183 12.2411 8.88388C12.0067 8.64946 11.875 8.33152 11.875 8Z" fill="#443F25"/>
</svg>
