<svg width="25" height="25" viewBox="0 0 25 25" fill="none" xmlns="http://www.w3.org/2000/svg">
<g clip-path="url(#clip0_37_2)">
<path fill-rule="evenodd" clip-rule="evenodd" d="M2.03571 2.7125C2.03571 1.21786 3.24642 0.00535583 4.74106 0.00535583H13.2946C14.7911 0.00535583 16.0018 1.21786 16.0018 2.7125V8.94107C15.3048 9.38539 14.7116 9.97438 14.2623 10.6681C13.813 11.3618 13.5182 12.1441 13.3977 12.9618C13.2773 13.7795 13.3342 14.6135 13.5644 15.4073C13.7946 16.2011 14.1929 16.9361 14.7321 17.5625C13.5819 18.2969 12.6354 19.3093 11.98 20.5063C11.3245 21.7032 10.9814 23.0461 10.9821 24.4107C10.9821 24.6125 11.0018 24.8089 11.0429 25H2.92856C2.89999 25 2.87142 25 2.84285 24.9964H1.36785C1.01265 24.9964 0.671997 24.8553 0.420832 24.6042C0.169667 24.353 0.0285645 24.0123 0.0285645 23.6571C0.0285645 23.3019 0.169667 22.9613 0.420832 22.7101C0.671997 22.459 1.01265 22.3179 1.36785 22.3179H2.03571V10.0393H9.79821C10.0942 10.0393 10.3781 9.9217 10.5874 9.7124C10.7967 9.50309 10.9143 9.21921 10.9143 8.92321C10.9143 8.62721 10.7967 8.34334 10.5874 8.13403C10.3781 7.92473 10.0942 7.80714 9.79821 7.80714H2.03571V5.39643H7.32142C7.61742 5.39643 7.9013 5.27884 8.1106 5.06954C8.31991 4.86023 8.43749 4.57636 8.43749 4.28036C8.43749 3.98436 8.31991 3.70048 8.1106 3.49117C7.9013 3.28187 7.61742 3.16428 7.32142 3.16428H2.03571V2.7125ZM22.6429 13.8018C22.6429 14.7395 22.2703 15.6388 21.6073 16.3019C20.9442 16.965 20.0449 17.3375 19.1071 17.3375C18.1694 17.3375 17.2701 16.965 16.607 16.3019C15.9439 15.6388 15.5714 14.7395 15.5714 13.8018C15.5714 12.8641 15.9439 11.9647 16.607 11.3017C17.2701 10.6386 18.1694 10.2661 19.1071 10.2661C20.0449 10.2661 20.9442 10.6386 21.6073 11.3017C22.2703 11.9647 22.6429 12.8641 22.6429 13.8018ZM19.1071 18.5161C17.5443 18.5161 16.0454 19.1369 14.9403 20.242C13.8351 21.3472 13.2143 22.846 13.2143 24.4089C13.214 24.4865 13.2291 24.5633 13.2586 24.635C13.2881 24.7067 13.3315 24.7719 13.3862 24.8268C13.441 24.8817 13.506 24.9252 13.5776 24.955C13.6493 24.9847 13.726 25 13.8036 25H24.4107C24.567 25 24.7169 24.9379 24.8274 24.8274C24.9379 24.7169 25 24.567 25 24.4107C25 22.8478 24.3791 21.349 23.274 20.2438C22.1689 19.1387 20.67 18.5161 19.1071 18.5161Z" fill="#A4A4A4"/>
</g>
<defs>
<clipPath id="clip0_37_2">
<rect width="25" height="25" fill="white"/>
</clipPath>
</defs>
</svg>
