<svg width="30" height="30" viewBox="0 0 30 30" fill="none" xmlns="http://www.w3.org/2000/svg">
<path d="M10.1786 13.9286C11.4573 13.9286 12.6836 13.4206 13.5878 12.5164C14.492 11.6122 15 10.3859 15 9.10714C15 7.82842 14.492 6.60207 13.5878 5.69788C12.6836 4.79368 11.4573 4.28571 10.1786 4.28571C8.89984 4.28571 7.6735 4.79368 6.7693 5.69788C5.86511 6.60207 5.35714 7.82842 5.35714 9.10714C5.35714 10.3859 5.86511 11.6122 6.7693 12.5164C7.6735 13.4206 8.89984 13.9286 10.1786 13.9286ZM25.1786 10.1786C25.1786 10.671 25.0816 11.1587 24.8931 11.6136C24.7047 12.0686 24.4284 12.482 24.0802 12.8302C23.732 13.1784 23.3186 13.4547 22.8636 13.6431C22.4087 13.8316 21.921 13.9286 21.4286 13.9286C20.9361 13.9286 20.4485 13.8316 19.9935 13.6431C19.5385 13.4547 19.1251 13.1784 18.7769 12.8302C18.4287 12.482 18.1525 12.0686 17.964 11.6136C17.7756 11.1587 17.6786 10.671 17.6786 10.1786C17.6786 9.18401 18.0737 8.23018 18.7769 7.52692C19.4802 6.82366 20.434 6.42857 21.4286 6.42857C22.4231 6.42857 23.377 6.82366 24.0802 7.52692C24.7835 8.23018 25.1786 9.18401 25.1786 10.1786ZM2.14285 18.4821C2.14285 17.8428 2.39684 17.2296 2.84893 16.7775C3.30103 16.3254 3.91421 16.0714 4.55357 16.0714H15.8036C16.0157 16.0714 16.2214 16.0993 16.4175 16.1507C15.6299 16.9002 15.0031 17.8021 14.5752 18.8015C14.1473 19.801 13.9273 20.8771 13.9286 21.9643C13.9286 22.6768 14.0207 23.3668 14.1954 24.0236C13.1507 24.4039 11.835 24.6429 10.1786 24.6429C2.14285 24.6429 2.14285 19.0179 2.14285 19.0179V18.4821ZM28.9286 21.9643C28.9286 23.8113 28.1948 25.5827 26.8888 26.8888C25.5827 28.1948 23.8113 28.9286 21.9643 28.9286C20.1172 28.9286 18.3458 28.1948 17.0398 26.8888C15.7337 25.5827 15 23.8113 15 21.9643C15 20.1172 15.7337 18.3458 17.0398 17.0398C18.3458 15.7337 20.1172 15 21.9643 15C23.8113 15 25.5827 15.7337 26.8888 17.0398C28.1948 18.3458 28.9286 20.1172 28.9286 21.9643ZM22.5 17.6786C22.5 17.5365 22.4436 17.4002 22.3431 17.2998C22.2426 17.1993 22.1064 17.1429 21.9643 17.1429C21.8222 17.1429 21.6859 17.1993 21.5855 17.2998C21.485 17.4002 21.4286 17.5365 21.4286 17.6786V21.4286H17.6786C17.5365 21.4286 17.4002 21.485 17.2998 21.5855C17.1993 21.6859 17.1429 21.8222 17.1429 21.9643C17.1429 22.1064 17.1993 22.2426 17.2998 22.3431C17.4002 22.4436 17.5365 22.5 17.6786 22.5H21.4286V26.25C21.4286 26.3921 21.485 26.5283 21.5855 26.6288C21.6859 26.7293 21.8222 26.7857 21.9643 26.7857C22.1064 26.7857 22.2426 26.7293 22.3431 26.6288C22.4436 26.5283 22.5 26.3921 22.5 26.25V22.5H26.25C26.3921 22.5 26.5283 22.4436 26.6288 22.3431C26.7293 22.2426 26.7857 22.1064 26.7857 21.9643C26.7857 21.8222 26.7293 21.6859 26.6288 21.5855C26.5283 21.485 26.3921 21.4286 26.25 21.4286H22.5V17.6786Z" fill="#A4A4A4"/>
</svg>
