<svg width="33" height="33" viewBox="0 0 33 33" fill="none" xmlns="http://www.w3.org/2000/svg">
<path d="M11 15.125C12.4587 15.125 13.8576 14.5455 14.8891 13.5141C15.9205 12.4826 16.5 11.0837 16.5 9.625C16.5 8.16631 15.9205 6.76736 14.8891 5.73591C13.8576 4.70446 12.4587 4.125 11 4.125C9.54131 4.125 8.14236 4.70446 7.11091 5.73591C6.07946 6.76736 5.5 8.16631 5.5 9.625C5.5 11.0837 6.07946 12.4826 7.11091 13.5141C8.14236 14.5455 9.54131 15.125 11 15.125ZM23.375 15.125C24.469 15.125 25.5182 14.6904 26.2918 13.9168C27.0654 13.1432 27.5 12.094 27.5 11C27.5 9.90598 27.0654 8.85677 26.2918 8.08318C25.5182 7.3096 24.469 6.875 23.375 6.875C22.281 6.875 21.2318 7.3096 20.4582 8.08318C19.6846 8.85677 19.25 9.90598 19.25 11C19.25 12.094 19.6846 13.1432 20.4582 13.9168C21.2318 14.6904 22.281 15.125 23.375 15.125ZM5.84375 17.875C5.02324 17.875 4.23633 18.2009 3.65614 18.7811C3.07595 19.3613 2.75 20.1482 2.75 20.9688V21.3125C2.75 21.3125 2.75 27.5 11 27.5C19.25 27.5 19.25 21.3125 19.25 21.3125V20.9688C19.25 20.1482 18.9241 19.3613 18.3439 18.7811C17.7637 18.2009 16.9768 17.875 16.1562 17.875H5.84375ZM25.014 19.2431L25.6685 17.5863C26.0012 16.742 26.9335 16.3034 27.797 16.5853L28.3896 16.7791C29.3851 17.105 30.2129 17.8874 30.2459 18.9365C30.3834 23.2127 26.8414 29.3631 23.078 31.3871C22.1526 31.8849 21.0595 31.5563 20.2799 30.8495L19.8165 30.4301C19.4925 30.1368 19.2921 29.7313 19.2558 29.2958C19.2196 28.8603 19.3502 28.4272 19.6213 28.0844L20.7212 26.6956C21.12 26.191 21.7759 25.9669 22.3988 26.1181L24.1753 26.5485C25.6919 25.5448 26.5045 24.134 26.6145 22.3149L25.3536 20.9894C25.1365 20.7609 24.9892 20.4752 24.9291 20.1658C24.8689 19.8564 24.8984 19.5363 25.014 19.2431Z" fill="#BC7D85"/>
</svg>
