<svg width="33" height="33" viewBox="0 0 33 33" fill="none" xmlns="http://www.w3.org/2000/svg">
<path d="M19.5938 12.375V10.3125H18.5625C18.0155 10.3125 17.4909 10.5298 17.1041 10.9166C16.7173 11.3034 16.5 11.828 16.5 12.375V20.625C16.5 21.172 16.7173 21.6966 17.1041 22.0834C17.4909 22.4702 18.0155 22.6875 18.5625 22.6875H19.5938V20.625C19.5938 20.078 19.811 19.5534 20.1978 19.1666C20.5846 18.7798 21.1092 18.5625 21.6562 18.5625H27.8438C28.3908 18.5625 28.9154 18.7798 29.3022 19.1666C29.689 19.5534 29.9062 20.078 29.9062 20.625V26.8125C29.9062 27.3595 29.689 27.8841 29.3022 28.2709C28.9154 28.6577 28.3908 28.875 27.8438 28.875H21.6562C21.1092 28.875 20.5846 28.6577 20.1978 28.2709C19.811 27.8841 19.5938 27.3595 19.5938 26.8125V24.75H18.5625C17.4685 24.75 16.4193 24.3154 15.6457 23.5418C14.8721 22.7682 14.4375 21.719 14.4375 20.625V17.5312H10.3125V18.5625C10.3125 19.1095 10.0952 19.6341 9.70841 20.0209C9.32161 20.4077 8.79701 20.625 8.25 20.625H4.125C3.57799 20.625 3.05339 20.4077 2.66659 20.0209C2.2798 19.6341 2.0625 19.1095 2.0625 18.5625V14.4375C2.0625 13.8905 2.2798 13.3659 2.66659 12.9791C3.05339 12.5923 3.57799 12.375 4.125 12.375H8.25C8.79701 12.375 9.32161 12.5923 9.70841 12.9791C10.0952 13.3659 10.3125 13.8905 10.3125 14.4375V15.4688H14.4375V12.375C14.4375 11.281 14.8721 10.2318 15.6457 9.45818C16.4193 8.6846 17.4685 8.25 18.5625 8.25H19.5938V6.1875C19.5938 5.64049 19.811 5.11589 20.1978 4.72909C20.5846 4.3423 21.1092 4.125 21.6562 4.125H27.8438C28.3908 4.125 28.9154 4.3423 29.3022 4.72909C29.689 5.11589 29.9062 5.64049 29.9062 6.1875V12.375C29.9062 12.922 29.689 13.4466 29.3022 13.8334C28.9154 14.2202 28.3908 14.4375 27.8438 14.4375H21.6562C21.1092 14.4375 20.5846 14.2202 20.1978 13.8334C19.811 13.4466 19.5938 12.922 19.5938 12.375Z" fill="#7388C0"/>
</svg>
