<svg width="32" height="32" viewBox="0 0 32 32" fill="none" xmlns="http://www.w3.org/2000/svg">
<path d="M20 7.20001C20 8.26088 19.5786 9.27829 18.8284 10.0284C18.0783 10.7786 17.0609 11.2 16 11.2C14.9391 11.2 13.9217 10.7786 13.1716 10.0284C12.4214 9.27829 12 8.26088 12 7.20001C12 6.13915 12.4214 5.12173 13.1716 4.37159C13.9217 3.62144 14.9391 3.20001 16 3.20001C17.0609 3.20001 18.0783 3.62144 18.8284 4.37159C19.5786 5.12173 20 6.13915 20 7.20001ZM28 8.00001C28 8.84871 27.6629 9.66264 27.0628 10.2628C26.4626 10.8629 25.6487 11.2 24.8 11.2C23.9513 11.2 23.1374 10.8629 22.5373 10.2628C21.9372 9.66264 21.6 8.84871 21.6 8.00001C21.6 7.15132 21.9372 6.33739 22.5373 5.73727C23.1374 5.13715 23.9513 4.80001 24.8 4.80001C25.6487 4.80001 26.4626 5.13715 27.0628 5.73727C27.6629 6.33739 28 7.15132 28 8.00001ZM7.20001 11.2C8.04871 11.2 8.86264 10.8629 9.46275 10.2628C10.0629 9.66264 10.4 8.84871 10.4 8.00001C10.4 7.15132 10.0629 6.33739 9.46275 5.73727C8.86264 5.13715 8.04871 4.80001 7.20001 4.80001C6.35132 4.80001 5.53739 5.13715 4.93727 5.73727C4.33715 6.33739 4.00001 7.15132 4.00001 8.00001C4.00001 8.84871 4.33715 9.66264 4.93727 10.2628C5.53739 10.8629 6.35132 11.2 7.20001 11.2ZM9.60001 14.8C9.60001 13.696 10.496 12.8 11.6 12.8H20.4C21.504 12.8 22.4 13.696 22.4 14.8V22.4C22.4 24.0974 21.7257 25.7253 20.5255 26.9255C19.3253 28.1257 17.6974 28.8 16 28.8C14.3026 28.8 12.6748 28.1257 11.4745 26.9255C10.2743 25.7253 9.60001 24.0974 9.60001 22.4V14.8ZM8.00001 14.8C8.00001 14.0592 8.22401 13.3728 8.60641 12.8H5.20001C4.09601 12.8 3.20001 13.696 3.20001 14.8V20.8C3.19994 21.485 3.34647 22.1621 3.62977 22.7857C3.91308 23.4094 4.32658 23.9652 4.8425 24.4158C5.35842 24.8664 5.96481 25.2013 6.62092 25.3982C7.27703 25.595 7.96766 25.6491 8.64641 25.5568C8.21833 24.5595 7.99837 23.4853 8.00001 22.4V14.8ZM24 22.4C24 23.52 23.7696 24.5888 23.3536 25.5568C24.0324 25.6491 24.723 25.595 25.3791 25.3982C26.0352 25.2013 26.6416 24.8664 27.1575 24.4158C27.6734 23.9652 28.0869 23.4094 28.3702 22.7857C28.6535 22.1621 28.8001 21.485 28.8 20.8V14.8C28.8 13.696 27.904 12.8 26.8 12.8H23.3936C23.7776 13.3728 24 14.0592 24 14.8V22.4Z" fill="#D3A476"/>
</svg>
